<?xml version="1.0" standalone="no"?>
<!DOCTYPE svg PUBLIC "-//W3C//DTD SVG 20010904//EN"
 "http://www.w3.org/TR/2001/REC-SVG-20010904/DTD/svg10.dtd">
<svg version="1.0" xmlns="http://www.w3.org/2000/svg"
 width="334.000000pt" height="334.000000pt" viewBox="0 0 334.000000 334.000000"
 preserveAspectRatio="xMidYMid meet">
<metadata>
Created by potrace 1.14, written by Peter Selinger 2001-2017
</metadata>
<g transform="translate(0.000000,334.000000) scale(0.100000,-0.100000)"
fill="#000000" stroke="none">
<path d="M0 1670 l0 -1670 1670 0 1670 0 0 1670 0 1670 -1670 0 -1670 0 0
-1670z m2255 781 c114 -6 158 -12 184 -25 l34 -18 -6 -122 c-3 -66 -11 -155
-17 -196 -6 -41 -18 -149 -26 -240 -9 -91 -22 -223 -29 -295 -8 -71 -14 -145
-15 -164 0 -33 0 -33 37 -26 20 4 55 16 77 27 49 25 144 35 175 19 12 -7 27
-24 33 -39 13 -35 12 -129 -2 -183 -13 -47 -80 -154 -132 -210 -114 -123 -351
-233 -578 -266 -58 -9 -188 -18 -290 -20 -152 -4 -209 -1 -320 16 -130 20
-274 54 -295 70 -5 5 -22 11 -37 15 -57 13 -236 130 -292 190 -39 42 -94 128
-102 160 -3 14 -10 28 -14 31 -12 7 -23 148 -16 189 9 48 55 80 115 80 43 -1
161 -36 189 -57 7 -5 15 -8 18 -5 9 10 11 164 2 258 -4 52 -15 194 -23 315 -9
121 -20 266 -25 323 -5 57 -6 110 -4 117 13 32 59 49 149 56 130 9 1033 9
1210 0z"/>
</g>
</svg>
